<svg version="1.1" xmlns="http://www.w3.org/2000/svg" xmlns:xlink="http://www.w3.org/1999/xlink" width="121.75" height="260.93957" viewBox="0,0,121.75,260.93957"><g transform="translate(-179.125,-56.9375)"><g data-paper-data="{&quot;isPaintingLayer&quot;:true}" fill-rule="nonzero" stroke-linejoin="miter" stroke-miterlimit="10" stroke-dasharray="" stroke-dashoffset="0" style="mix-blend-mode: normal"><path d="M179.375,302.8125v-245.625h121.25v245.625z" fill="#00a9ff" stroke="#000000" stroke-width="0.5" stroke-linecap="butt"/><path d="M246.84751,71.81035c0,0 18.1364,2.26753 16.55172,21.55172c-1.5253,18.56162 -17.41379,18.7931 -17.41379,18.7931l-14.65517,0.17242l-0.17242,20.86207h-14.65518l0.17242,-61.37931h30.17241z" fill="#edb03f" stroke="#000000" stroke-width="0.5" stroke-linecap="round"/><path d="M230.81301,83.53448h10.51725c0,0 8.87466,-0.46255 8.27586,8.44828c-0.63293,9.41877 -7.93104,8.7931 -7.93104,8.7931h-10.68965z" fill="#d54825" stroke="#000000" stroke-width="0.5" stroke-linecap="round"/><path d="M231.12071,138.92242l17.24138,0.34483l21.37931,58.7931l-15.68966,-0.34483l-3.96552,-11.37931l-21.89656,0.17242l-4.65517,12.06896l-13.27587,-0.17242z" fill="#266d52" stroke="#000000" stroke-width="0.5" stroke-linecap="round"/><path d="M231.63793,175.30172l8.27587,-21.89655l7.24138,21.89655z" fill="#d64a28" stroke="#000000" stroke-width="0.5" stroke-linecap="round"/><path d="M210.68966,210.51725l15.34482,-0.17242l14.13793,42.75862l13.96552,-43.27587l15.17241,0.34483l-20.34483,60h-17.75862z" fill="#133d47" stroke="#000000" stroke-width="0.5" stroke-linecap="round"/><text transform="translate(182.95791,297.97888) scale(0.34014,0.34014)" font-size="40" xml:space="preserve" fill="#000000" fill-rule="nonzero" stroke="none" stroke-width="1" stroke-linecap="butt" stroke-linejoin="miter" stroke-miterlimit="10" stroke-dasharray="" stroke-dashoffset="0" font-family="'Consolas', monospace" font-weight="normal" text-anchor="start" style="mix-blend-mode: normal"><tspan x="0" dy="0">POWER B X</tspan><tspan x="0" dy="48px"> </tspan></text><text transform="translate(236.42243,290.25563) scale(0.22313,0.22313)" font-size="40" xml:space="preserve" fill="#000000" fill-rule="nonzero" stroke="none" stroke-width="1" stroke-linecap="butt" stroke-linejoin="miter" stroke-miterlimit="10" stroke-dasharray="" stroke-dashoffset="0" font-family="'Consolas', monospace" font-weight="normal" text-anchor="start" style="mix-blend-mode: normal"><tspan x="0" dy="0">2</tspan><tspan x="0" dy="48px"> </tspan></text></g></g></svg>