<svg version="1.1" xmlns="http://www.w3.org/2000/svg" xmlns:xlink="http://www.w3.org/1999/xlink" width="265.75667" height="264.33121" viewBox="0,0,265.75667,264.33121"><g transform="translate(-107.59071,-49.007)"><g data-paper-data="{&quot;isPaintingLayer&quot;:true}" fill-rule="nonzero" stroke="#000000" stroke-width="0.5" stroke-linejoin="miter" stroke-miterlimit="10" stroke-dasharray="" stroke-dashoffset="0" style="mix-blend-mode: normal"><path d="M371.80113,49.606v260.78799h-263.60225z" data-paper-data="{&quot;index&quot;:null}" fill="#f0b629" stroke-linecap="butt"/><path d="M109.13696,312.73921v-260.78799h263.60225z" fill="#2a7c51" stroke-linecap="butt"/><path d="M321.0938,182.3171l1.25,2.125c0,0 -16.15771,55.42882 -16.375,56.125c-0.38538,1.23475 1.42839,3.30983 4.81596,4.53786c1.90909,0.69206 3.96375,2.35762 7.30904,0.46214c4.86379,-2.75587 20.625,-55.5 20.625,-55.5l3.25,-1.875c0,0 -3.69642,-0.59829 -7.96995,-1.62508c-3.13901,-0.7542 -6.81961,-1.91226 -8.40934,-2.35967c-1.96675,-0.55352 -4.49571,-1.89026 -4.49571,-1.89026z" fill="#ff0000" stroke-linecap="round"/><path d="M326.42464,175.52736l15.28302,-49.62264l3.29909,-0.12425c0,0 6.1221,-18.20245 10.35094,-17.0717c2.16043,0.57767 -1.76324,19.27142 -1.76324,19.27142l2.64151,1.8868l-14.90566,50l2.45283,0.94339l0.4717,0.66038l-1.60378,6.50943l-12.26415,-2.45283l-5.84906,-1.98113l-3.77359,-1.79245l1.8868,-5.75472z" fill="#001b1b" stroke-linecap="round"/><path d="M190.94472,196.0088c0,0 24.7286,-88.9768 28.84616,-98.46154c0.9923,-2.28576 2.35783,-26.37532 -23.10728,-6.417l-4.81056,0.34002l-1.25,-1.5625l8.59375,-14.6875l10.46875,-6.875l8.28125,-3.28125l18.75,-0.9375l3.90625,4.53125l3.125,1.25h5.15625l2.5,-4.375h13.4375l2.96875,2.34375l0.46875,19.375v1.25l-2.5,2.34375l-13.28125,0.15625l-1.875,-1.5625l-0.46875,-2.5l-1.875,-0.9375l-3.59375,0.3125l-2.96875,1.71875l-1.40625,3.75l2.65625,13.28125l7.8125,25.9375l10.15625,33.59375l10.1875,33.90625l-0.3125,1.5625l-14.375,0.3125l-12.1875,-36.71875l-27.5,-0.3125l-10.4375,35.78125l-15.46875,0.78125z" fill="#000000" stroke-linecap="round"/><path d="M218.56925,153.09277l22.85715,0.35714l-11.42857,-40.71429z" fill="#297d52" stroke-linecap="round"/><path d="M251.69656,287.66251l-3.2653,0.30612l-1.93877,0.30613l-3.36734,1.02041l-2.44898,1.53061l-0.30613,2.2449l-0.91836,2.55102l-2.75511,2.24489l-4.18367,2.2449l-3.10205,0.71428l-3.36734,-0.10204l-1.93878,-1.83673l-6.73469,2.44898l-2.55102,0.30612l-1.83674,-0.61224l-0.51021,-2.04082l0.40817,-1.83673l1.32653,-1.02041l7.34694,-2.7551v-1.02041l-0.91837,-2.95918l-0.91837,-0.5102l-9.18367,2.55102l-1.32653,-0.81633l-1.02041,-1.12245l-0.10204,-2.14286l0.61225,-1.53061l9.79592,-3.06122l0.55102,-3.46938l4.79592,-3.36735l5.71428,-1.42857l4.08163,0.81633l2.04082,2.34694l2.14285,5.5102l6.42857,-2.2449l5.20408,-0.81633h2.85714l19.91297,-1.08498l15.47619,-5.47619l13.57143,-12.14286l8.09524,-16.90476l5.47619,2.38096l-0.71429,6.42857l-5.2381,10.71428l-13.57143,13.57143l-17.61905,8.33333z" fill="#000000" stroke-linecap="round"/><path d="M151.83943,168.46029l-13.44173,0.04968l-4.90741,0.55556l-2.03704,2.12963l0.18519,6.48148l3.14815,3.14815l-0.37037,4.44444l-3.24074,3.88889l0.09259,42.5l0.46297,5.09259c0,0 1.18285,3.86527 6.2037,5.09259c5.02085,1.22732 11.09555,1.62642 14.25926,0.18519c3.66375,-1.66903 6.2963,-6.01852 6.2963,-6.01852l-0.27778,-47.87037l-3.05555,-3.70371l0.13284,-4.40395c4.73595,-3.98757 2.73543,-8.09732 2.41268,-8.95631c0,0 -1.45279,-1.98951 -2.30393,-2.36919c-1.05789,-0.4719 -3.5591,-0.24616 -3.5591,-0.24616z" fill="#ae221e" stroke-linecap="round"/><path d="M150.98954,99.7241v68.29268l-11.70732,0.36585v-67.56098l-3.78049,-6.58537l3.53659,-17.68293l11.09756,-0.2439l3.78049,18.17073z" fill="#a7a7a7" stroke-linecap="round"/><path d="M146.72124,214.60214c0,11.24775 0.72361,20.12207 -2.0122,20.2439c-2.73852,0.12195 -2.0122,-8.99615 -2.0122,-20.2439c0,-11.24775 -0.92155,-20.19429 2.0122,-20.4878c3.00725,-0.30087 2.0122,9.24005 2.0122,20.4878z" fill="#7b0f0b" stroke-linecap="butt"/><path d="M151.27754,114.2139l21.08108,0l5.40541,2.83784l3.64865,5.13514l1.08108,4.18919l0.13514,7.97297l-1.62162,5.54054l-3.37838,4.72973l-3.78378,2.02703l-22.2973,0.81081l-0.40541,9.72973l26.62162,-0.40541l10.27027,-3.37838l6.35135,-7.2973l3.24324,-8.91892l0.27027,-12.97297l-3.78378,-9.32432l-5.13514,-5l-7.16216,-3.37838l-5.13514,-1.08108l-25.67568,-0.13514z" fill="#000000" stroke-linecap="round"/><path d="M262.90127,110.86876l42.14286,130.71429l8.92857,-30l-32.85714,-101.42857z" fill="#000000" stroke-linecap="round"/></g></g></svg>